<svg xmlns="http://www.w3.org/2000/svg">




    <symbol id='logo' viewBox='0 0 64 64'>
        <path d="M37.4605 7.76497C37.3998 7.76372 37.3411 7.76397 37.2842 7.76535C36.5283 7.7841 36.1055 8.04485 36.2161 8.6076C37.5255 13.882 37.6849 19.3314 35.5802 24.1469C37.1667 24.8756 38.4975 26.0644 39.3997 27.559C43.0217 24.5563 46.664 20.6442 48.977 17.5857C52.2445 13.2652 41.2775 7.8466 37.4605 7.76497ZM25.1757 8.31397C20.172 8.24547 11.3314 15.789 13.847 16.6496C19.072 18.1534 23.8732 20.7416 26.9912 24.9756C28.368 23.9903 30.0432 23.399 31.8515 23.3681C31.062 18.7299 29.4949 13.6194 28.0027 10.0869C27.4775 8.84347 26.4512 8.33135 25.1757 8.31397ZM54.7775 23.7783C54.6406 23.7808 54.5027 23.8386 54.3652 23.9586C50.4537 27.7286 45.8157 30.5905 40.5952 31.1771C40.6216 31.4506 40.6351 31.7252 40.6355 31.9999C40.6364 33.4674 40.2606 34.9105 39.544 36.1912C43.9557 37.8267 49.1652 39.0249 52.971 39.4989C59.2043 40.2752 57.145 23.7361 54.7775 23.7783ZM10.573 24.4758C4.55323 24.5391 7.17235 42.185 9.62748 40.0424C13.5409 36.2705 18.1812 33.4074 23.4047 32.8229C23.2358 31.0847 23.602 29.3365 24.4541 27.8121C20.041 26.1755 14.8287 24.9763 11.0216 24.5021C10.8728 24.4832 10.723 24.4743 10.573 24.4758ZM32 25.6145C30.5742 25.6145 29.2616 26.0765 28.2016 26.8593C28.4528 27.3104 28.6843 27.7723 28.8954 28.2435C29.7407 27.5425 30.8237 27.1198 32 27.1198C32.1055 27.1198 32.21 27.1241 32.3137 27.131C32.2807 26.6398 32.2347 26.1351 32.1752 25.6185C32.1169 25.6173 32.0587 25.6145 32 25.6145ZM34.5525 26.142C34.2885 26.5833 34.0055 27.013 33.7044 27.4298C34.8666 27.8673 35.8216 28.7373 36.3714 29.841C36.795 29.5567 37.2118 29.2622 37.6214 28.9578C36.9427 27.7019 35.8619 26.7104 34.5525 26.142ZM26.555 28.653C25.9587 29.6249 25.6145 30.7703 25.6145 31.9999C25.6145 32.2424 25.629 32.4811 25.655 32.7161C26.1612 32.7244 26.6725 32.754 27.1885 32.807C27.1431 32.5404 27.1201 32.2704 27.1197 31.9999C27.1197 31.0015 27.4247 30.0704 27.9455 29.2945C27.4872 29.0697 27.0235 28.8558 26.555 28.653ZM32 29.3699C30.534 29.3699 29.37 30.5339 29.37 31.9999C29.37 33.4659 30.534 34.6299 32 34.6299C33.466 34.6299 34.63 33.4659 34.63 31.9999C34.63 30.5339 33.466 29.3699 32 29.3699ZM36.8117 31.1949C36.8559 31.4571 36.8801 31.7258 36.8801 31.9999C36.8801 32.9999 36.5743 33.9324 36.0521 34.7089C36.5105 34.9338 36.9742 35.1477 37.4427 35.3505C38.0408 34.3778 38.3857 33.2311 38.3857 31.9999C38.3857 31.758 38.3713 31.5199 38.3455 31.2849C37.8392 31.2771 37.3277 31.2478 36.8117 31.1949ZM27.627 34.1557C27.2033 34.44 26.7866 34.7345 26.377 35.0388C27.0546 36.2943 28.1338 37.2861 29.442 37.8555C29.7061 37.4144 29.9891 36.9848 30.2902 36.568C29.1294 36.1293 28.1755 35.2589 27.627 34.1557ZM35.0986 35.7614C34.2539 36.4593 33.1732 36.8802 31.9999 36.8802C31.8917 36.8802 31.7849 36.8752 31.6784 36.868C31.7114 37.3593 31.7574 37.864 31.8167 38.3808C31.8777 38.3824 31.9385 38.3854 31.9999 38.3854C33.423 38.3854 34.7332 37.9249 35.7921 37.1449C35.5409 36.694 35.3097 36.2324 35.0986 35.7614ZM24.598 36.4374C20.974 39.4409 17.3292 43.3558 15.015 46.4159C11.0069 51.7159 28.4192 58.6677 27.7762 55.3934C26.4662 50.1179 26.3075 44.6672 28.4137 39.8505C26.8286 39.1209 25.4991 37.9317 24.598 36.4374ZM37.0032 39.0283C35.6257 40.0127 33.9495 40.6025 32.1405 40.6318C32.93 45.2705 34.4972 50.3814 35.9896 53.9143C38.5753 60.0356 53.3021 48.4318 50.1449 47.3518C44.9211 45.8484 40.1215 43.2605 37.0032 39.0283Z" fill="white"/>
    </symbol>

    <symbol id='burger' viewBox="0 0 24 24">
        <path d="M4 18L20 18" stroke="#fff" stroke-width="2" stroke-linecap="round"/>
        <path d="M4 12L20 12" stroke="#fff" stroke-width="2" stroke-linecap="round"/>
        <path d="M4 6L20 6" stroke="#fff" stroke-width="2" stroke-linecap="round"/>
    </symbol>

    <symbol id='diam' viewBox='0 0 90 90'>
        <path d="M45.154 76.2813C44.0915 76.2813 43.0603 76.0463 42.0603 75.5763C41.0603 75.1063 40.1853 74.435 39.4353 73.5625L10.7478 39.25C9.81027 38.125 9.24777 36.8125 9.06027 35.3125C8.87277 33.8125 9.12277 32.4063 9.81027 31.0938L16.8415 17.125C17.529 15.875 18.4515 14.875 19.609 14.125C20.7665 13.375 22.0615 13 23.494 13H66.8065C68.244 13 69.5415 13.375 70.699 14.125C71.8565 14.875 72.7778 15.875 73.4628 17.125L80.494 31.0938C81.1815 32.4063 81.4315 33.8125 81.244 35.3125C81.0565 36.8125 80.494 38.125 79.5565 39.25L50.869 73.5625C50.119 74.4375 49.244 75.11 48.244 75.58C47.244 76.05 46.2128 76.2838 45.1503 76.2813H45.154ZM36.2478 31.75H54.0603L48.4353 20.5H41.8728L36.2478 31.75ZM41.404 64.2813V39.25H20.5915L41.404 64.2813ZM48.904 64.2813L69.7165 39.25H48.904V64.2813ZM62.404 31.75H72.3415L66.7165 20.5H56.779L62.404 31.75ZM17.9665 31.75H27.904L33.529 20.5H23.5915L17.9665 31.75Z" />
    </symbol>


    <symbol id='storage' viewBox='0 0 90 90'>
        <path d="M25.3125 33.75V28.125H11.25C9.75816 28.125 8.32742 28.7176 7.27252 29.7725C6.21763 30.8274 5.625 32.2582 5.625 33.75V78.75C5.625 80.2418 6.21763 81.6726 7.27252 82.7275C8.32742 83.7824 9.75816 84.375 11.25 84.375H56.25C57.7418 84.375 59.1726 83.7824 60.2275 82.7275C61.2824 81.6726 61.875 80.2418 61.875 78.75V53.4375H56.25V78.75H11.25V33.75"/>
        <path d="M61.875 33.75H39.375V11.25H61.875V33.75ZM33.75 11.25V33.75C33.75 35.2418 34.3426 36.6726 35.3975 37.7275C36.4524 38.7824 37.8832 39.375 39.375 39.375H61.875C63.3668 39.375 64.7976 38.7824 65.8525 37.7275C66.9074 36.6726 67.5 35.2418 67.5 33.75V11.25C67.5 9.75816 66.9074 8.32742 65.8525 7.27252C64.7976 6.21763 63.3668 5.625 61.875 5.625H39.375C37.8832 5.625 36.4524 6.21763 35.3975 7.27252C34.3426 8.32742 33.75 9.75816 33.75 11.25ZM39.375 50.625V61.875H28.125V50.625H39.375ZM22.5 50.625V61.875C22.5 63.3668 23.0926 64.7976 24.1475 65.8525C25.2024 66.9074 26.6332 67.5 28.125 67.5H39.375C40.8668 67.5 42.2976 66.9074 43.3525 65.8525C44.4074 64.7976 45 63.3668 45 61.875V50.625C45 49.1332 44.4074 47.7024 43.3525 46.6475C42.2976 45.5926 40.8668 45 39.375 45H28.125C26.6332 45 25.2024 45.5926 24.1475 46.6475C23.0926 47.7024 22.5 49.1332 22.5 50.625ZM78.75 47.8125V53.4375H73.125V47.8125H78.75ZM67.5 45V56.25C67.5 56.9959 67.7963 57.7113 68.3238 58.2387C68.8512 58.7662 69.5666 59.0625 70.3125 59.0625H81.5625C82.3084 59.0625 83.0238 58.7662 83.5512 58.2387C84.0787 57.7113 84.375 56.9959 84.375 56.25V45C84.375 44.2541 84.0787 43.5387 83.5512 43.0113C83.0238 42.4838 82.3084 42.1875 81.5625 42.1875H70.3125C69.5666 42.1875 68.8512 42.4838 68.3238 43.0113C67.7963 43.5387 67.5 44.2541 67.5 45Z"/>
    </symbol>
    
    <symbol id='support' viewBox='0 0 90 90'>
        <g clip-path="url(#clip0_6_46)">
        <path d="M45 0C51.0938 0 56.9196 1.18862 62.4777 3.56585C68.0357 5.94308 72.8237 9.14062 76.8415 13.1585C80.8594 17.1763 84.0569 21.9643 86.4342 27.5223C88.8114 33.0804 90 38.9062 90 45C90 51.0938 88.8114 56.9196 86.4342 62.4777C84.0569 68.0357 80.8594 72.8237 76.8415 76.8415C72.8237 80.8594 68.0357 84.0569 62.4777 86.4342C56.9196 88.8114 51.0938 90 45 90C38.9062 90 33.0804 88.8114 27.5223 86.4342C21.9643 84.0569 17.1763 80.8594 13.1585 76.8415C9.14062 72.8237 5.94308 68.0357 3.56585 62.4777C1.18862 56.9196 0 51.0938 0 45C0 38.9062 1.18862 33.0804 3.56585 27.5223C5.94308 21.9643 9.14062 17.1763 13.1585 13.1585C17.1763 9.14062 21.9643 5.94308 27.5223 3.56585C33.0804 1.18862 38.9062 0 45 0ZM45 6.42857C38.6384 6.42857 32.5949 7.93527 26.8694 10.9487L36.6127 20.692C39.3583 19.7545 42.154 19.2857 45 19.2857C47.846 19.2857 50.6417 19.7545 53.3873 20.692L63.1306 10.9487C57.4051 7.93527 51.3616 6.42857 45 6.42857ZM10.9487 63.1306L20.692 53.3873C19.7545 50.6417 19.2857 47.846 19.2857 45C19.2857 42.154 19.7545 39.3583 20.692 36.6127L10.9487 26.8694C7.93527 32.5949 6.42857 38.6384 6.42857 45C6.42857 51.3616 7.93527 57.4051 10.9487 63.1306ZM45 83.5714C51.3616 83.5714 57.4051 82.0647 63.1306 79.0513L53.3873 69.308C50.6417 70.2455 47.846 70.7143 45 70.7143C42.154 70.7143 39.3583 70.2455 36.6127 69.308L26.8694 79.0513C32.5949 82.0647 38.6384 83.5714 45 83.5714ZM45 64.2857C50.3237 64.2857 54.8689 62.4023 58.6356 58.6356C62.4023 54.8689 64.2857 50.3237 64.2857 45C64.2857 39.6763 62.4023 35.1311 58.6356 31.3644C54.8689 27.5977 50.3237 25.7143 45 25.7143C39.6763 25.7143 35.1311 27.5977 31.3644 31.3644C27.5977 35.1311 25.7143 39.6763 25.7143 45C25.7143 50.3237 27.5977 54.8689 31.3644 58.6356C35.1311 62.4023 39.6763 64.2857 45 64.2857ZM69.308 53.3873L79.0513 63.1306C82.0647 57.4051 83.5714 51.3616 83.5714 45C83.5714 38.6384 82.0647 32.5949 79.0513 26.8694L69.308 36.6127C70.2455 39.3583 70.7143 42.154 70.7143 45C70.7143 47.846 70.2455 50.6417 69.308 53.3873Z"/>
        </g>
        <defs>
        <clipPath id="clip0_6_46">
        <rect width="90" height="90" />
        </clipPath>
        </defs>
    </symbol>
</svg>